Harry Potter and the Deathly Hallows (Part-1) OFFICIAL TRAILER H264 - GHOST

Format                           : Flash Video
File size                        : 9.91 MiB
Duration                         : 2mn 27s
Overall bit rate                 : 563 Kbps

Video
Format                           : AVC
Format/Info                      : Advanced Video Codec
Format profile                   : Main@L2.1
Format settings, CABAC           : Yes
Format settings, ReFrames        : 3 frames

Duration                         : 2mn 27s
Bit rate                         : 455 Kbps
Width                            : 640 pixels
Height                           : 266 pixels
Display aspect ratio             : 2.40:1
Frame rate mode                  : Constant
Frame rate                       : 24.000 fps
Color space                      : YUV
Chroma subsampling               : 4:2:0
Bit depth                        : 8 bits
Scan type                        : Progressive
Bits/(Pixel*Frame)               : 0.111
Stream size                      : 7.98 MiB (81%)

Audio
Format                           : AAC
Format/Info                      : Advanced Audio Codec
Format version                   : Version 4
Format profile                   : LC
Format settings, SBR             : No
Duration                         : 2mn 27s
Bit rate                         : 102 Kbps
Channel(s)                       : 2 channels
Channel positions                : Front: L R
Sampling rate                    : 44.1 KHz
Bit depth                        : 16 bits
Stream size                      : 1.78 MiB (18%)

